<svg xmlns="http://www.w3.org/2000/svg" class="svg-standalone-icon" viewBox="84.55 160.19 156.94 149.62"><g data-paper-data="{&quot;isIcon&quot;:&quot;true&quot;,&quot;iconType&quot;:&quot;icon&quot;,&quot;rawIconId&quot;:&quot;22591&quot;,&quot;selectedEffects&quot;:{&quot;container&quot;:&quot;&quot;,&quot;transformation&quot;:&quot;&quot;,&quot;pattern&quot;:&quot;&quot;},&quot;isDetailed&quot;:false,&quot;fillRule&quot;:&quot;evenodd&quot;,&quot;bounds&quot;:{&quot;x&quot;:84.54779362314534,&quot;y&quot;:160.1890003275777,&quot;width&quot;:156.94340939302944,&quot;height&quot;:149.62199934484462},&quot;iconStyle&quot;:&quot;standalone&quot;,&quot;suitableAsStandaloneIcon&quot;:true}" fill-rule="evenodd"><path d="M84.54779,232.35158v0.08004l0.08004,0.08004l-0.08004,0.08004v2.25057l0.07847,4.09779l0.08005,0.08161h-0.08005l0.40178,4.41953c0.59011,4.12447 1.36698,7.95389 2.33061,11.48983c1.66046,5.62642 3.45589,10.31275 5.38473,14.0637c1.6071,3.32249 4.09936,7.34024 7.47365,12.05482c2.9474,3.74781 6.77682,7.47365 11.4914,11.16966c6.21496,4.39285 12.91173,8.22383 20.09033,11.4914h0.08004c-1.12528,-2.41222 -2.27568,-4.60629 -3.45432,-6.59005c-3.37428,-5.41141 -8.62561,-13.42023 -15.75084,-24.02804c-8.78569,-13.60856 -13.17854,-25.66182 -13.17854,-36.1629v-0.08004l-0.08004,-0.08004h0.08161l-0.08004,-0.88359c0,-14.73228 5.11636,-27.80409 15.34907,-39.21545l2.65234,-2.89247c4.66122,-4.33949 8.30388,-7.28531 10.92954,-8.83905c4.12447,-2.51894 8.22227,-4.5545 12.29495,-6.10824c7.66041,-2.51894 14.1971,-3.77763 19.60694,-3.77763h0.08161l0.08004,-0.08004v0.08004l0.48182,-0.08004h3.69602c12.16154,0 23.7063,3.40253 34.63584,10.20603c2.08892,1.17865 5.3298,3.7227 9.72264,7.63373c11.83981,11.78488 17.75815,25.66182 17.75815,41.6261l-0.08004,3.61598l-0.08004,0.32173l0.08004,0.08004l-0.08004,0.08161v0.72351l-0.16165,0.48339l0.16165,0.08004l-0.80512,5.14304c0,1.66046 -0.96363,5.22465 -2.89247,10.68785c-1.39366,3.481 -3.13416,6.83018 -5.22308,10.04438c-1.82211,3.05412 -5.06299,6.88354 -9.72421,11.4914c-3.64266,3.26756 -6.29343,5.30469 -7.95389,6.10824c-5.35805,2.78575 -8.03707,5.70489 -8.03707,8.75901c0,0.69526 0.10672,1.52706 0.32173,2.49069c1.23201,3.53594 3.64266,5.30469 7.23195,5.30469c1.33873,0 2.83911,-0.42846 4.49957,-1.28537c3.80431,-2.249 8.46396,-5.70489 13.98209,-10.36611c3.42764,-3.32249 6.21496,-6.295 8.35724,-8.92066c3.32406,-4.39285 5.94816,-8.49064 7.87699,-12.29495c1.76718,-3.75095 3.40096,-8.25052 4.90134,-13.50027c1.6071,-7.44853 2.41065,-13.15343 2.41065,-17.11625l-0.08004,-0.08161l0.08004,-0.08161v-5.06142l-0.08004,-0.08004h0.08004l-0.07847,-0.32016c0,-5.83986 -1.28537,-12.67004 -3.85767,-20.4921c-2.249,-6.26832 -5.38316,-12.13486 -9.40248,-17.59806c-1.71382,-2.73395 -5.19483,-6.59005 -10.44615,-11.57301c-4.33949,-3.69602 -8.14379,-6.50844 -11.41136,-8.43728c-5.25133,-3.16084 -10.55444,-5.73314 -15.91249,-7.71534c-9.53588,-3.10748 -17.62631,-4.66122 -24.26816,-4.66122l-0.48339,-0.08004l-0.08004,0.08004l-0.56186,-0.08004h-4.74126l-0.16165,0.08004v-0.08004l-1.92883,0.08004c-7.98214,0.6419 -14.43722,1.76718 -19.36682,3.37428c-6.05331,2.03556 -11.06294,4.15115 -15.02733,6.34836c-4.44621,2.46558 -9.08075,5.73314 -13.90205,9.80425c-4.65965,4.44778 -8.00882,8.06375 -10.04438,10.8495c-3.85767,5.1964 -6.99183,10.44772 -9.40248,15.75084c-3.85767,9.53588 -5.7865,17.97316 -5.7865,25.3134l-0.08004,0.48182l0.08004,0.08004zM160.96982,181.32457v-0.16165c-4.1794,0.2668 -7.82049,0.75019 -10.92954,1.43917c-8.62561,1.87547 -16.5795,5.70489 -23.86638,11.4914c-3.85767,3.481 -6.40172,6.02663 -7.63373,7.63373c-8.09043,10.28607 -12.13486,21.5907 -12.13486,33.91233c0,5.67821 0.88359,11.17123 2.65234,16.47435c1.6071,4.71458 5.73157,12.10818 12.37499,22.18081c1.50038,2.19407 8.49221,13.15029 20.97392,32.86552c3.15927,0.91027 9.42759,1.79386 18.80339,2.65077h0.08161l0.08004,-0.08004c-7.34024,-12.69672 -17.81308,-29.8679 -31.42164,-51.5104c-5.35648,-7.87542 -8.0355,-15.34907 -8.0355,-22.42094v-0.16008l-0.08004,-0.08004l0.08004,-0.08004v-1.68714c0,-4.28612 1.04524,-8.8673 3.13416,-13.74196c1.6071,-3.53594 3.8561,-6.88354 6.75014,-10.04438c5.03631,-5.89323 12.05482,-10.12599 21.05396,-12.69672c1.87704,-0.53518 4.50271,-0.96363 7.87699,-1.28537v0.08004l0.48182,-0.08004h1.44702l0.08004,-0.16165l0.08161,0.16165h0.88359l0.08004,-0.16165l0.08004,0.16165h0.24169l0.08004,-0.16165l0.08161,0.16165h0.24012c7.55369,0 15.13405,2.4389 22.7411,7.31356c1.87547,1.07192 4.1794,3.00076 6.91022,5.7865c2.57073,2.78575 4.52625,5.41141 5.86654,7.87542c2.73238,5.51813 4.09779,10.23271 4.09779,14.14374l0.08004,0.32173h-0.08004l0.08004,0.40178v4.33949l-0.08004,0.40178l0.08004,0.16322h-0.08004c0,1.39209 -0.32173,3.66934 -0.96363,6.83018c-1.12528,3.85767 -2.30393,6.85686 -3.53594,8.99914c-1.3403,2.78731 -3.5893,5.83986 -6.75171,9.16236c-1.9822,1.92883 -3.7227,3.26756 -5.22308,4.01932c-4.71458,2.08892 -7.07187,4.90134 -7.07187,8.43728l0.40334,2.41065c1.33873,3.37585 3.69602,5.06299 7.07187,5.06299h0.16008c1.12685,0 2.17053,-0.21344 3.13416,-0.6419c1.55374,-0.16008 5.08967,-2.67902 10.60781,-7.55369c12.00146,-11.40979 18.00141,-24.37645 18.00141,-38.89372v-2.97408l-0.08004,-0.08004h0.08004v-0.08004c-0.48182,-5.57149 -1.31205,-9.83094 -2.49069,-12.77676c-1.44702,-4.28612 -3.48257,-8.33056 -6.10824,-12.13486c-1.39209,-2.35729 -4.49957,-5.86654 -9.32087,-10.52776c-3.85767,-3.37428 -7.28688,-5.89323 -10.28764,-7.55369c-3.21263,-1.82211 -7.25863,-3.50925 -12.13329,-5.06299c-5.62485,-1.39366 -10.23271,-2.14385 -13.82201,-2.25057l-0.08161,0.16165l-0.08004,-0.16165h-4.58118zM162.25675,202.70026v-0.16165c-2.62566,0.21344 -4.39285,0.42846 -5.30469,0.6419c-1.60553,0 -4.84798,1.01856 -9.72264,3.05412c-2.73238,1.2838 -5.75982,3.45432 -9.08075,6.50844c-6.1616,6.48176 -9.2424,13.92873 -9.2424,22.33932c0,6.05331 1.797,11.86649 5.3863,17.43798c4.01775,5.83986 7.66041,11.49297 10.92797,16.95774c9.53588,16.12437 17.83976,29.32958 24.91163,39.61566c3.69759,0 8.97402,-0.91027 15.83088,-2.73082c-7.65884,-12.96666 -18.61506,-30.67145 -32.86552,-53.11907c-5.51813,-7.82206 -8.2772,-13.74196 -8.2772,-17.75972c0,-4.71458 1.57885,-8.89398 4.74126,-12.53664c3.90946,-3.64266 7.98214,-5.4632 12.21334,-5.4632h0.16165l0.08161,-0.08004v0.08004l0.6419,-0.08004c4.60629,0 8.46553,1.15196 11.57144,3.45589c4.71458,4.12447 7.07187,8.86573 7.07187,14.22378v0.32173c0,1.76875 -0.32016,3.56262 -0.96363,5.38473c-0.80198,2.51737 -2.62409,4.74126 -5.4632,6.67009c-3.96439,2.73238 -5.94659,5.43809 -5.94659,8.11554c0.05493,0.80355 0.21501,1.58042 0.48182,2.33061c1.6071,3.48257 4.04443,5.22308 7.31356,5.22308c2.62409,0 5.54481,-1.28537 8.75901,-3.85767c7.66041,-7.23195 11.4914,-15.29414 11.4914,-24.18812v-0.48182c0,-4.65965 -1.17865,-9.42916 -3.53594,-14.30382c-4.23276,-7.82206 -10.42104,-13.18011 -18.56327,-16.07257c-4.01932,-1.12528 -7.20684,-1.68714 -9.56413,-1.68714l-0.08004,0.16165l-0.08161,-0.16165h-0.08004l-0.08004,0.16165l-0.16165,-0.16165h-2.49226z" data-paper-data="{&quot;isPathIcon&quot;:true}" style="fill: rgb(255, 255, 255);"></path></g></svg>